<svg xmlns="http://www.w3.org/2000/svg" viewBox="0 0 900 650" role="img" aria-label="Annadhan food donation illustration">
  <defs>
    <linearGradient id="bg" x1="0" y1="0" x2="1" y2="1"><stop stop-color="#E9FFF1"/><stop offset="1" stop-color="#EAF4FF"/></linearGradient>
    <linearGradient id="plate" x1="0" y1="0" x2="1" y2="1"><stop stop-color="#2ECC71"/><stop offset="1" stop-color="#3498DB"/></linearGradient>
    <filter id="shadow" x="-20%" y="-20%" width="140%" height="140%"><feDropShadow dx="0" dy="18" stdDeviation="18" flood-color="#1E293B" flood-opacity=".18"/></filter>
  </defs>
  <rect width="900" height="650" rx="45" fill="url(#bg)"/>
  <circle cx="725" cy="110" r="90" fill="#F39C12" opacity=".22"/>
  <circle cx="125" cy="540" r="110" fill="#2ECC71" opacity=".17"/>
  <g filter="url(#shadow)">
    <rect x="125" y="115" width="650" height="420" rx="36" fill="#fff" opacity=".93"/>
  </g>
  <g transform="translate(120 140)">
    <circle cx="190" cy="138" r="48" fill="#F6C7A7"/>
    <path d="M130 275c20-76 100-76 120 0" fill="#3498DB"/>
    <path d="M148 99c20-44 85-38 93 11-24-14-55-14-93-11z" fill="#1E293B"/>
    <circle cx="470" cy="138" r="48" fill="#C68958"/>
    <path d="M410 275c22-78 100-78 120 0" fill="#2ECC71"/>
    <path d="M426 105c17-42 78-46 93 0-26-9-57-8-93 0z" fill="#1E293B"/>
    <circle cx="330" cy="112" r="55" fill="#E8A87A"/>
    <path d="M257 289c24-100 122-100 146 0" fill="#F39C12"/>
    <path d="M275 80c20-55 96-58 110 0-29-11-70-10-110 0z" fill="#1E293B"/>
    <ellipse cx="330" cy="335" rx="188" ry="58" fill="url(#plate)" opacity=".95"/>
    <ellipse cx="330" cy="325" rx="145" ry="40" fill="#fff" opacity=".92"/>
    <circle cx="275" cy="318" r="20" fill="#E74C3C"/>
    <circle cx="322" cy="315" r="25" fill="#F1C40F"/>
    <circle cx="373" cy="321" r="20" fill="#27AE60"/>
    <path d="M215 250c75 36 150 36 230 0" fill="none" stroke="#1E293B" stroke-width="16" stroke-linecap="round" opacity=".17"/>
  </g>
  <g transform="translate(530 120)">
    <rect x="0" y="0" width="190" height="88" rx="24" fill="#2ECC71" opacity=".95"/>
    <text x="95" y="38" text-anchor="middle" font-family="Arial" font-size="24" font-weight="700" fill="#fff">Share Food</text>
    <text x="95" y="66" text-anchor="middle" font-family="Arial" font-size="17" fill="#fff">Share Hope</text>
  </g>
</svg>
