<svg xmlns="http://www.w3.org/2000/svg" viewBox="0 0 120 120" width="120" height="120">
  <defs>
    <linearGradient id="lg1" x1="0%" y1="0%" x2="100%" y2="100%">
      <stop offset="0%" style="stop-color:#16a34a"/>
      <stop offset="100%" style="stop-color:#d97706"/>
    </linearGradient>
    <linearGradient id="lg2" x1="0%" y1="0%" x2="100%" y2="100%">
      <stop offset="0%" style="stop-color:#15803d"/>
      <stop offset="100%" style="stop-color:#b45309"/>
    </linearGradient>
  </defs>
  <!-- Bowl base -->
  <ellipse cx="60" cy="80" rx="42" ry="14" fill="url(#lg2)" opacity="0.85"/>
  <path d="M18 68 Q60 100 102 68" fill="url(#lg1)" stroke="none"/>
  <!-- Grain/wheat stalks -->
  <line x1="60" y1="68" x2="60" y2="28" stroke="url(#lg1)" stroke-width="3.5" stroke-linecap="round"/>
  <line x1="50" y1="68" x2="42" y2="30" stroke="url(#lg1)" stroke-width="3" stroke-linecap="round"/>
  <line x1="70" y1="68" x2="78" y2="30" stroke="url(#lg1)" stroke-width="3" stroke-linecap="round"/>
  <!-- Grain heads -->
  <ellipse cx="60" cy="24" rx="5" ry="9" fill="#d97706"/>
  <ellipse cx="41" cy="26" rx="4" ry="8" fill="#16a34a"/>
  <ellipse cx="79" cy="26" rx="4" ry="8" fill="#16a34a"/>
  <!-- Leaf left -->
  <path d="M52 48 Q36 38 38 24 Q50 36 52 48" fill="#16a34a" opacity="0.8"/>
  <!-- Leaf right -->
  <path d="M68 48 Q84 38 82 24 Q70 36 68 48" fill="#16a34a" opacity="0.8"/>
  <!-- Heart -->
  <path d="M54 56 C54 52 48 50 48 55 C48 60 54 64 60 68 C66 64 72 60 72 55 C72 50 66 52 66 56 C66 52 60 50 60 54 C60 50 54 52 54 56Z" fill="#ef4444" opacity="0.85"/>
</svg>
